<svg width="56" height="56" version="1.1" xmlns="http://www.w3.org/2000/svg">
  <g stroke="none" stroke-width="1" fill="#000" fill-rule="evenodd">
    <path d="M27.9997161 3.02776351c-13.7696542 0-24.97196282 11.20253579-24.97196282 24.97242569 0 13.7695115 11.20230862 24.9720473 24.97196282 24.9720473 13.7698435 0 24.9725306-11.2025358 24.9725306-24.9720473 0-13.7698899-11.2026871-24.97242569-24.9725306-24.97242569m0 52.97223649C12.5606345 56 0 43.4393231 0 28.0001892 0 12.5608662 12.5606345 0 27.9997161 0 43.4389871 0 56 12.5608662 56 28.0001892 56 43.4393231 43.4389871 56 27.9997161 56"/>
    <path d="M20.49976742 18C19.12134462 18 18 19.1214649 18 20.5c0 1.37838005 1.12134462 2.5 2.49976742 2.5C21.87834527 23 23 21.87838005 23 20.5c0-1.3785351-1.12165473-2.5-2.50023258-2.5"/>
    <path d="M36.4997674 18C35.1213446 18 34 19.1214649 34 20.5c0 1.37838005 1.1213446 2.5 2.4997674 2.5C37.8783453 23 39 21.87838005 39 20.5c0-1.3785351-1.1216547-2.5-2.5002326-2.5"/>
    <path d="M39.755138 41c-.6863165 0-1.2448621-.56876007-1.2448621-1.2676628 0-5.6225294-4.4906643-10.1967047-10.0105772-10.1967047-5.51976234 0-10.01042663 4.5741753-10.01042663 10.1967047 0 .69890273-.55854558 1.2676628-1.24486205 1.2676628C16.55824423 41 16 40.43123993 16 39.7323372 16 32.7116955 21.60730343 27 28.4996987 27 35.3923952 27 41 32.7116955 41 39.7323372 41 40.43123993 40.4414544 41 39.755138 41"/>
  </g>
</svg>