<svg width="40" height="40" version="1.1" xmlns="http://www.w3.org/2000/svg">
  <g fill="#000" stroke="none" stroke-width="1" fill-rule="evenodd">
    <path d="M19.9997972 2.16268822c-9.8354672 0-17.83711629 8.00181128-17.83711629 17.83744698 0 9.8353653 8.00164909 17.8371766 17.83711629 17.8371766 9.8356025 0 17.8375219-8.0018113 17.8375219-17.8371766 0-9.8356357-8.0019194-17.83744698-17.8375219-17.83744698m0 37.83731178C8.97188177 40 0 31.0280879 0 20.0001352 0 8.97204725 8.97188177 0 19.9997972 0 31.0278479 0 40 8.97204725 40 20.0001352 40 31.0280879 31.0278479 40 19.9997972 40"/>
    <path d="M14.64269059 12.857143c-.98458772 0-1.78554816.80104636-1.78554816 1.78571429 0 .98455718.80096044 1.78571428 1.78554816 1.78571428.98469846 0 1.78588041-.8011571 1.78588041-1.78571428 0-.98466793-.80118195-1.78571429-1.78588041-1.78571429"/>
    <path d="M26.071262 12.857143c-.9845877 0-1.7855481.80104636-1.7855481 1.78571429 0 .98455718.8009604 1.78571428 1.7855481 1.78571428.9846985 0 1.7858804-.8011571 1.7858804-1.78571428 0-.98466793-.8011819-1.78571429-1.7858804-1.78571429"/>
    <path d="M28.3965267 19.28571443c-.4902261 0-.8891872.40625719-.8891872.9054734 0 4.01609247-3.2076173 7.28336057-7.15041232 7.28336057-3.94268735 0-7.1503047-3.2672681-7.1503047-7.28336057 0-.49921621-.39896113-.9054734-.88918718-.9054734-.49011842 0-.8888643.40625719-.8888643.9054734 0 5.01474407 4.00521674 9.09452657 8.92835618 9.09452657 4.92335472 0 8.92878672-4.0797825 8.92878672-9.09452657 0-.49921621-.3989612-.9054734-.8891872-.9054734"/>
  </g>
</svg>