<svg version="1.1" xmlns="http://www.w3.org/2000/svg" x="0" y="0" viewBox="0 0 641.03 641.07" xml:space="preserve">
  <path d="M428.71 48.74c-6.49 21.69-21.73 23.81-39.36 18.54l-15.18-4.54 16.62-55.57 15.18 4.54c17.63 5.27 29.23 15.34 22.74 37.03zM398.19 17.9l-11.94 39.93 4.98 1.49c10.65 3.19 22.09 4.02 27.37-13.61 5.25-17.55-4.77-23.14-15.43-26.32l-4.98-1.49z"/>
  <path d="m491.36 48.54-4 7.48-27.23-14.56-7.32 13.68 25.75 13.77-3.96 7.41-25.75-13.77-8.03 15.03 27.23 14.56-4.04 7.55-36.19-19.35 27.35-51.14 36.19 19.34z"/>
  <path d="M495.21 69.35c6.84-8.46 19.03-5.6 27.31 1.09 8.9 7.19 12.59 16.87 6.8 27.72l-7.65-6.19c3.07-6.47-.4-11.85-4.82-15.42-3.48-2.82-9.91-5.44-13.48-1.02-2.82 3.48-1.36 7.54 1.89 11.4l4.68 5.53c6.64 7.94 11.86 16.89 4.51 25.97-7.34 9.08-20.14 6.46-29.03-.74-10.7-8.65-13.31-20.43-6.25-31.08l7.78 6.29c-3.61 7.26-2.14 13.59 4.08 18.62 5.35 4.33 11.6 5.37 15.12 1.01 3.72-4.6 0-10.18-3.64-14.46l-4.62-5.48c-5.92-7.14-8.86-15.59-2.68-23.24z"/>
  <path d="m508.96 137.75 42.35-39.63 6.94 7.42-42.35 39.63-6.94-7.42z"/>
  <path d="M579.52 164.11c4.81-5.59 5.02-12.4.75-18.69-5.53-8.14-15.64-10.07-27.42-2.07-11.65 7.91-14.31 17.94-8.56 26.41 3.86 5.69 11.23 11.13 19.77 5.33l.93-.63-8.31-12.24 7.08-4.81 13.62 20.05-25.08 17.03-4.49-6.62 5.58-4.17c-6.17.03-12.15-3.65-16.59-10.2-9.26-13.63-4.84-28.62 10.19-38.83 14.89-10.11 30.66-7.96 40.32 6.27 7.28 10.72 6.51 22.26-2.33 31.17l-5.46-8z"/>
  <path d="m603.42 195.55-43.17 16.79-3.57-9.17 54.05-21.03 4.93 12.67-34.26 39.69 43.17-16.79 3.57 9.17-54.05 21.03-4.93-12.67 34.26-39.69z"/>
  <path d="M614.38 284.28c4.01-4.01 8.04-6.82 12.67-7.19 7.73-.62 13.16 6.01 13.9 15.26.59 7.34-2.02 15.89-11.51 16.65-6.7.54-12.34-3.83-15.8-9.97l-9.09 9.79c3.45 1.01 7.09 1.36 10.78 1.31l.79 9.89c-5.95-.17-12.32-1.5-17.99-4.18l-13.37 14.47-1.07-13.32 6.13-6.59c-5.01-4.42-8.54-10.39-9.14-17.97-.93-11.64 5.86-20.05 15.51-20.82 8.7-.7 14.8 5.31 18.19 12.67zm-5.25 5.55c-2.7-5.64-6.54-8.55-11.57-8.14-6.06.48-9.4 4.84-8.85 11.78.36 4.47 2.9 8.19 6.66 11.02l13.76-14.66zm9.45 3.82c2.62 4.61 6.2 6.33 9.79 6.04 3.91-.31 5.52-3.17 5.24-6.68-.27-3.35-2.25-6-5.51-5.74-3.35.27-6.64 3.26-9.44 6.37l-.08.01z"/>
  <path d="M603.73 365.4c-10.42-2.15-16.71-.59-18.89 9.99-2.15 10.42 3.3 14.49 13.72 16.64l33.22 6.86-2.05 9.95-32.83-6.78c-17.94-3.7-23.62-11.82-20.21-28.35 3.36-16.3 11.15-21.96 29.49-18.18l33.14 6.84-2.05 9.95-33.54-6.92z"/>
  <path d="m568.69 406.77 54.39 20.12-3.53 9.53-54.39-20.12 3.53-9.53z"/>
  <path d="m605.79 467.09-4 8.19-42.2-45.73 4-8.19 42.2 45.73z"/>
  <path d="M561.58 475.7c-8.66-6.19-15.04-7.31-21.32 1.48-6.19 8.66-2.85 14.58 5.8 20.77l27.59 19.73-5.91 8.26-27.27-19.49c-14.9-10.65-16.81-20.37-6.99-34.1 9.68-13.54 19.09-15.56 34.32-4.67l27.53 19.68-5.91 8.27-27.84-19.93z"/>
  <path d="m557.08 538.38-8.94 8.25-23.63-5.08 2.93 24.18-8.47 7.81-4.18-34.02-36.15-7.68 8.94-8.25 25.99 5.52-3.24-26.51 8.41-7.76 4.43 36.29 33.91 7.25z"/>
  <path d="M438.4 599.91c-6.75-12.99 1.35-20.81 13.49-27.12l8.09-4.21-10.11-19.45 9.01-4.69 26.75 51.46-16.96 8.82c-11.28 5.88-22.82 9.53-30.27-4.81zm25.42-23.94-8.38 4.35c-6.81 3.54-11.55 7.27-7.71 14.65 4.35 8.38 10.86 5.81 17.18 2.52l7.95-4.13-9.04-17.39z"/>
  <path d="M424.76 594.19c4.72 17.2-2.33 31.74-18.76 36.25-16.43 4.5-29.91-4.41-34.62-21.61-4.72-17.2 2.31-31.82 18.74-36.33s29.92 4.49 34.64 21.69zm-43.28 11.86c3.72 13.58 13.06 18.9 22.32 16.36s14.58-11.88 10.86-25.45c-3.72-13.58-13.08-18.98-22.34-16.44s-14.57 11.96-10.84 25.53z"/>
  <path d="m336.7 606.78 9.83-.49-1.21-24.37 10.15-.51 2.89 57.92-18.46.92c-17.1.85-26-2.55-26.64-15.41-.37-7.43 3.05-12.65 10.12-15.48l-14.57-25.62 11.42-.57 13.44 23.84c.95-.13 1.99-.18 3.03-.23zm10.23 7.58-10.07.5c-8.71.43-13.57 2.44-13.23 9.39.38 7.59 6.42 8.33 14.41 7.93l9.75-.49-.86-17.33z"/>
  <path d="m302.55 632.66-1.12 8.41-46.23-6.16 1.12-8.41 18.08 2.41 6.54-49.09 10.07 1.34-6.54 49.09 18.08 2.41z"/>
  <path d="m201.33 618.62 2.58-8.08 28.88 9.23 4.72-14.78-27.2-8.69 2.56-8 27.2 8.69 7.79-24.38 9.68 3.09-17.66 55.25-38.55-12.33z"/>
  <path d="M202.12 588.03c-8.77 15.54-24.01 20.91-38.85 12.53-14.84-8.37-18.14-24.19-9.37-39.73 8.77-15.54 24.05-20.97 38.89-12.6s18.09 24.26 9.33 39.8zm-39.1-22.05c-6.92 12.26-4.03 22.62 4.33 27.34s18.72 1.83 25.63-10.43c6.92-12.27 4.07-22.69-4.29-27.41s-18.75-1.76-25.67 10.5z"/>
  <path d="m126.58 510.5 5.6-6.47 29.74 25.77-37.98 43.83-7.68-6.65 32.37-37.36-22.05-19.12z"/>
  <path d="M128.83 499.16 85.6 537.84l-6.77-7.57 43.22-38.67 6.78 7.56z"/>
  <path d="M90.81 501.31c-15 9.66-30.99 7.29-40.21-7.04-9.22-14.33-4.76-29.86 10.25-39.52 15-9.66 31.06-7.33 40.28 7 9.21 14.32 4.68 29.9-10.32 39.56zm-24.3-37.75c-11.84 7.62-14.12 18.13-8.92 26.2 5.2 8.07 15.7 10.35 27.54 2.73 11.84-7.62 14.19-18.17 8.99-26.24-5.19-8.07-15.77-10.31-27.61-2.69z"/>
  <path d="M47.1 423.92c-17.21 4.68-31.74-2.39-36.21-18.83s4.47-29.9 21.68-34.58 31.82 2.37 36.29 18.81-4.54 29.92-21.76 34.6zm-11.77-43.31c-13.59 3.7-18.93 13.02-16.41 22.29 2.52 9.26 11.85 14.6 25.43 10.91s19-13.04 16.48-22.31c-2.51-9.26-11.92-14.58-25.5-10.89z"/>
  <path d="m13.13 346.72 46.29-1.78.38 9.83L1.84 357l-.52-13.59 45.34-26.32-46.29 1.78-.37-9.84 57.96-2.22.52 13.59-45.35 26.32z"/>
  <path d="m42.55 251.96-2.39 9.55 23.67 5.93-2.47 9.86-56.27-14.11 4.49-17.93c4.16-16.61 10.01-24.13 22.5-21 7.22 1.81 11.21 6.61 11.87 14.19l28.76-6.48-2.78 11.1-26.72 5.92c-.15.95-.41 1.96-.66 2.97zm-10.23 7.58 2.45-9.78c2.12-8.46 1.62-13.7-5.13-15.39-7.37-1.85-9.84 3.72-11.79 11.48l-2.37 9.47 16.84 4.22z"/>
  <path d="m40.63 164 7.67 3.62-13.17 27.93 14.04 6.62 12.45-26.41 7.6 3.58-12.45 26.41 15.41 7.27 13.17-27.93 7.74 3.65-17.5 37.12-52.46-24.74L40.63 164z"/>
  <path d="m129.21 142.82.37 8.11-11.4.59c-.85 3.77-2.67 7.62-5.42 11.25-10.3 13.57-26.49 14.65-40.7 3.86-14.21-10.79-17.46-26.61-7.16-40.19 10.3-13.57 26.42-14.69 40.63-3.91 7.71 5.85 12.2 13.17 13.02 20.83l10.66-.54zm-20.27 9.12-7.38.33-.42-8.05 7.71-.37c-1.29-4.39-4.36-8.94-9.65-12.95-11.21-8.51-21.86-7.05-27.67.59s-4.35 18.29 6.87 26.81c11.21 8.51 21.93 7.1 27.73-.54 1.36-1.8 2.35-3.76 2.81-5.82z"/>
  <path d="M126.49 110.41c6.85 8.14 12.75 10.8 21.02 3.85 8.14-6.85 6.38-13.42-.47-21.56L125.2 66.75l7.77-6.54 21.58 25.64c11.8 14.02 11.23 23.9-1.68 34.77-12.73 10.71-22.35 10.34-34.4-3.98l-21.8-25.89 7.77-6.54 22.05 26.2z"/>
  <path d="m186.88 28.83 4.07 7.44-27.09 14.83 7.45 13.61 25.61-14.02 4.03 7.37-25.61 14.02 8.18 14.95 27.09-14.82 4.11 7.51-36 19.7-27.84-50.88 36-19.71z"/>
  <path d="M206.41 36.99c-3.33-10.36 5.75-18.99 15.88-22.24 10.89-3.5 21.01-1.29 26.92 9.51l-9.37 3.01c-3.73-6.11-10.13-6.16-15.54-4.42-4.27 1.37-9.98 5.3-8.24 10.71 1.37 4.27 5.56 5.27 10.57 4.67l7.2-.88c10.29-1.2 20.63-.66 24.2 10.46s-5.64 20.38-16.53 23.88c-13.1 4.21-24.39-.07-29.42-11.81l9.52-3.06c4.1 7 10.2 9.25 17.81 6.8 6.55-2.1 10.85-6.76 9.14-12.09-1.81-5.64-8.52-5.58-14.09-4.89l-7.12.86c-9.24 1.03-17.92-1.14-20.93-10.51z"/>
  <path d="m257.86 14.33-1.08-8.41L303.04 0l1.08 8.41-18.09 2.32 6.29 49.12-10.08 1.29-6.29-49.11-18.09 2.3z"/>
  <path d="m336.52 24.15 10.85.76-.76 10.85-10.86-.76.77-10.85z"/>
</svg>